<svg id="Ebene_1" data-name="Ebene 1" xmlns="http://www.w3.org/2000/svg" viewBox="0 0 195.64 219.29"><defs><style>.cls-1{fill:#006982;}</style></defs><path class="cls-1" d="M211,155.28c-6.78-8-15.51-13.79-24.86-18.81l-8.38-4.5.87,26.31c1.33.64,3.84,2.39,4.18,2.59A39.26,39.26,0,0,1,195.34,173c4.33,6.16,5,13,4,20.07-.93,6.48-3.41,12.29-8.66,16.82-6.19,5.34-13.86,7-22,7.36s-16.27-1.22-24.11-3.44a186.18,186.18,0,0,1-46.93-20.75c-.57-.35-1.13-.71-1.93-1.22.08.71.1,1.11.16,1.5q1.06,7.47,2.15,14.95c.85,5.79,1.7,11.57,2.63,17.35a1.72,1.72,0,0,0,1.14,1.07c2,.4,4.07.73,6.12.93,9.81.91,19.61,2,29.44,2.58,11.8.66,23.63,1.19,35.41-.44,9.41-1.3,18.37-3.86,26.51-8.56,10.4-6,18-14.21,21.09-25.39C224.58,180.89,221.21,167.33,211,155.28Z" transform="translate(-26.5 -11.57)"/><path class="cls-1" d="M174,47.7c.12-14.63-.09-21.19,0-36.09H144.55c.57,15.4,1.27,21.13,1.64,35.89C155.29,47,165.29,46.08,174,47.7Z" transform="translate(-26.5 -11.57)"/><path class="cls-1" d="M93.11,87.75c-13.53.64-11.35.07-24.89.33-12.42.24-12.55-.08-12.4-12,.27-21.2.73-42.4,1.12-64.51H26.5c2.95,47.49,3.59,94.31,2,141.27q-.64,18.63-1.76,37.29H57.38c-.36-12.67-.81-25-1.15-37.22-.24-8.64-.42-17.22-.47-25.8-.07-13,6.87-20.34,20.78-20.79,10.81-.36,5.61-.48,16.61-.45C90.5,98.67,91.56,93.58,93.11,87.75Z" transform="translate(-26.5 -11.57)"/><path class="cls-1" d="M146,155.28q-.63,17.61-1.69,35.34h30.63c-.3-10.72-.67-21.19-1-31.55v-.81a0,0,0,0,1,0,0c-.06-1.31-.21-3.78-.24-4.82a1.93,1.93,0,0,1,0-.48c-.24-11.37-.45-22.73-.43-34.09,0-20.92.06-23.27.25-44.4-8.27-2.86-18.36-5.68-27.46-5.14-.63,2.81-3.61,15.21-21.29,16.75l-3.15.41c0,6.32.71,11.87,9.15,19.63,12.18,0,3,.08,15.81.08,0,6.62.13,12.07,0,17.51C146.29,133.25,146.23,145.6,146,155.28Z" transform="translate(-26.5 -11.57)"/><path class="cls-1" d="M142.17,117c-5.71-2.58-8.59-4.79-13.62-8.48-6-4.38-10.42-9.72-11.22-17-1-9,1.79-16.62,10-21.93A31.56,31.56,0,0,1,141.16,65c-.44-4.07-.87-8.14-1.21-12.21a71.87,71.87,0,0,0-9.8,2.41C112.15,61.09,100,72,97,90.21a38.63,38.63,0,0,0,6,28.41c4.77,7.17,11.57,12.36,19.18,16.71a133.69,133.69,0,0,0,19.5,9.15C142.38,141,142.34,123.29,142.17,117Z" transform="translate(-26.5 -11.57)"/><path class="cls-1" d="M145.17,64.7c10.83-.32,21,2.23,30.89,6.17,9.6,3.84,18.52,8.82,27.36,13.95l7.93,4.65c-.59-3.64-1.14-7-1.68-10.35Q207.84,68,206,56.83c-.13-.82-.25-1.51-1.46-1.64-5.24-.57-10.46-1.36-15.71-1.85-7.43-.68-14.86-1.34-22.31-1.7-8.93-.44-17.82-.4-26.54,1.12.34,4.07.77,8.14,1.21,12.21Q143.18,64.76,145.17,64.7Z" transform="translate(-26.5 -11.57)"/></svg>